<?xml version="1.0" encoding="UTF-8" standalone="no"?>
<!DOCTYPE svg PUBLIC "-//W3C//DTD SVG 1.1//EN"
 "http://www.w3.org/Graphics/SVG/1.1/DTD/svg11.dtd">
<!-- Generated by graphviz version 2.38.0 (20140413.2041)
 -->
<!-- Title: Resilience Pages: 1 -->
<svg width="1215pt" height="260pt"
 viewBox="0.00 0.00 1215.27 260.00" xmlns="http://www.w3.org/2000/svg" xmlns:xlink="http://www.w3.org/1999/xlink">
<g id="graph0" class="graph" transform="scale(1 1) rotate(0) translate(4 256)">
<title>Resilience</title>
<polygon fill="white" stroke="none" points="-4,4 -4,-256 1211.27,-256 1211.27,4 -4,4"/>
<!-- Resilience -->
<g id="node1" class="node"><title>Resilience</title>
<ellipse fill="none" stroke="black" cx="342.567" cy="-234" rx="46.8805" ry="18"/>
<text text-anchor="middle" x="342.567" y="-229.8" font-family="Times,serif" font-size="14.00">Resilience</text>
</g>
<!-- Performance -->
<g id="node2" class="node"><title>Performance</title>
<ellipse fill="none" stroke="black" cx="94.5667" cy="-162" rx="55.0664" ry="18"/>
<text text-anchor="middle" x="94.5667" y="-157.8" font-family="Times,serif" font-size="14.00">Performance</text>
</g>
<!-- Resilience&#45;&gt;Performance -->
<g id="edge1" class="edge"><title>Resilience&#45;&gt;Performance</title>
<path fill="none" stroke="black" d="M305.973,-222.671C263.331,-210.635 192.628,-190.679 144.85,-177.193"/>
<polygon fill="black" stroke="black" points="145.595,-173.766 135.02,-174.418 143.694,-180.503 145.595,-173.766"/>
</g>
<!-- Scalability -->
<g id="node4" class="node"><title>Scalability</title>
<ellipse fill="none" stroke="black" cx="268.567" cy="-162" rx="47.8582" ry="18"/>
<text text-anchor="middle" x="268.567" y="-157.8" font-family="Times,serif" font-size="14.00">Scalability</text>
</g>
<!-- Resilience&#45;&gt;Scalability -->
<g id="edge3" class="edge"><title>Resilience&#45;&gt;Scalability</title>
<path fill="none" stroke="black" d="M325.775,-217.116C316.098,-207.962 303.762,-196.293 293.024,-186.135"/>
<polygon fill="black" stroke="black" points="295.218,-183.393 285.548,-179.064 290.408,-188.478 295.218,-183.393"/>
</g>
<!-- Robustness -->
<g id="node8" class="node"><title>Robustness</title>
<ellipse fill="none" stroke="black" cx="484.567" cy="-162" rx="50.2982" ry="18"/>
<text text-anchor="middle" x="484.567" y="-157.8" font-family="Times,serif" font-size="14.00">Robustness</text>
</g>
<!-- Resilience&#45;&gt;Robustness -->
<g id="edge7" class="edge"><title>Resilience&#45;&gt;Robustness</title>
<path fill="none" stroke="black" d="M370.283,-219.337C392.086,-208.589 422.697,-193.499 446.751,-181.642"/>
<polygon fill="black" stroke="black" points="448.525,-184.669 455.947,-177.108 445.43,-178.391 448.525,-184.669"/>
</g>
<!-- Dependability -->
<g id="node13" class="node"><title>Dependability</title>
<ellipse fill="none" stroke="black" cx="939.567" cy="-162" rx="60.4115" ry="18"/>
<text text-anchor="middle" x="939.567" y="-157.8" font-family="Times,serif" font-size="14.00">Dependability</text>
</g>
<!-- Resilience&#45;&gt;Dependability -->
<g id="edge12" class="edge"><title>Resilience&#45;&gt;Dependability</title>
<path fill="none" stroke="black" d="M386.951,-227.796C491.298,-215.561 752.578,-184.925 874.725,-170.603"/>
<polygon fill="black" stroke="black" points="875.165,-174.075 884.69,-169.434 874.35,-167.123 875.165,-174.075"/>
</g>
<!-- Rapidity -->
<g id="node3" class="node"><title>Rapidity</title>
<ellipse fill="none" stroke="black" cx="40.5667" cy="-90" rx="40.6335" ry="18"/>
<text text-anchor="middle" x="40.5667" y="-85.8" font-family="Times,serif" font-size="14.00">Rapidity</text>
</g>
<!-- Performance&#45;&gt;Rapidity -->
<g id="edge2" class="edge"><title>Performance&#45;&gt;Rapidity</title>
<path fill="none" stroke="black" d="M81.7694,-144.411C75.1117,-135.781 66.8432,-125.062 59.4645,-115.497"/>
<polygon fill="black" stroke="black" points="62.1514,-113.25 53.2721,-107.47 56.6089,-117.526 62.1514,-113.25"/>
</g>
<!-- Capacity -->
<g id="node5" class="node"><title>Capacity</title>
<ellipse fill="none" stroke="black" cx="140.567" cy="-90" rx="41.5766" ry="18"/>
<text text-anchor="middle" x="140.567" y="-85.8" font-family="Times,serif" font-size="14.00">Capacity</text>
</g>
<!-- Scalability&#45;&gt;Capacity -->
<g id="edge4" class="edge"><title>Scalability&#45;&gt;Capacity</title>
<path fill="none" stroke="black" d="M242.664,-146.834C223.065,-136.116 195.971,-121.299 174.619,-109.622"/>
<polygon fill="black" stroke="black" points="176.013,-106.395 165.56,-104.668 172.654,-112.537 176.013,-106.395"/>
</g>
<!-- Resourcefulness -->
<g id="node6" class="node"><title>Resourcefulness</title>
<ellipse fill="none" stroke="black" cx="268.567" cy="-90" rx="68.1287" ry="18"/>
<text text-anchor="middle" x="268.567" y="-85.8" font-family="Times,serif" font-size="14.00">Resourcefulness</text>
</g>
<!-- Scalability&#45;&gt;Resourcefulness -->
<g id="edge5" class="edge"><title>Scalability&#45;&gt;Resourcefulness</title>
<path fill="none" stroke="black" d="M268.567,-143.697C268.567,-135.983 268.567,-126.712 268.567,-118.112"/>
<polygon fill="black" stroke="black" points="272.067,-118.104 268.567,-108.104 265.067,-118.104 272.067,-118.104"/>
</g>
<!-- Partitioning -->
<g id="node7" class="node"><title>Partitioning</title>
<ellipse fill="none" stroke="black" cx="268.567" cy="-18" rx="51.7346" ry="18"/>
<text text-anchor="middle" x="268.567" y="-13.8" font-family="Times,serif" font-size="14.00">Partitioning</text>
</g>
<!-- Resourcefulness&#45;&gt;Partitioning -->
<g id="edge6" class="edge"><title>Resourcefulness&#45;&gt;Partitioning</title>
<path fill="none" stroke="black" d="M268.567,-71.6966C268.567,-63.9827 268.567,-54.7125 268.567,-46.1124"/>
<polygon fill="black" stroke="black" points="272.067,-46.1043 268.567,-36.1043 265.067,-46.1044 272.067,-46.1043"/>
</g>
<!-- Fault tolerance -->
<g id="node9" class="node"><title>Fault tolerance</title>
<ellipse fill="none" stroke="black" cx="417.567" cy="-90" rx="62.7999" ry="18"/>
<text text-anchor="middle" x="417.567" y="-85.8" font-family="Times,serif" font-size="14.00">Fault tolerance</text>
</g>
<!-- Robustness&#45;&gt;Fault tolerance -->
<g id="edge8" class="edge"><title>Robustness&#45;&gt;Fault tolerance</title>
<path fill="none" stroke="black" d="M469.027,-144.765C460.608,-135.969 450.041,-124.928 440.676,-115.144"/>
<polygon fill="black" stroke="black" points="442.93,-112.437 433.487,-107.633 437.873,-117.278 442.93,-112.437"/>
</g>
<!-- Adaptability -->
<g id="node11" class="node"><title>Adaptability</title>
<ellipse fill="none" stroke="black" cx="552.567" cy="-90" rx="54.1317" ry="18"/>
<text text-anchor="middle" x="552.567" y="-85.8" font-family="Times,serif" font-size="14.00">Adaptability</text>
</g>
<!-- Robustness&#45;&gt;Adaptability -->
<g id="edge10" class="edge"><title>Robustness&#45;&gt;Adaptability</title>
<path fill="none" stroke="black" d="M500.338,-144.765C508.967,-135.882 519.82,-124.709 529.394,-114.854"/>
<polygon fill="black" stroke="black" points="531.951,-117.245 536.409,-107.633 526.93,-112.367 531.951,-117.245"/>
</g>
<!-- Recoverability -->
<g id="node12" class="node"><title>Recoverability</title>
<ellipse fill="none" stroke="black" cx="686.567" cy="-90" rx="62.3321" ry="18"/>
<text text-anchor="middle" x="686.567" y="-85.8" font-family="Times,serif" font-size="14.00">Recoverability</text>
</g>
<!-- Robustness&#45;&gt;Recoverability -->
<g id="edge11" class="edge"><title>Robustness&#45;&gt;Recoverability</title>
<path fill="none" stroke="black" d="M519.752,-148.807C552.749,-137.372 602.346,-120.186 638.887,-107.523"/>
<polygon fill="black" stroke="black" points="640.047,-110.825 648.349,-104.244 637.755,-104.211 640.047,-110.825"/>
</g>
<!-- Redundancy -->
<g id="node10" class="node"><title>Redundancy</title>
<ellipse fill="none" stroke="black" cx="417.567" cy="-18" rx="54.123" ry="18"/>
<text text-anchor="middle" x="417.567" y="-13.8" font-family="Times,serif" font-size="14.00">Redundancy</text>
</g>
<!-- Fault tolerance&#45;&gt;Redundancy -->
<g id="edge9" class="edge"><title>Fault tolerance&#45;&gt;Redundancy</title>
<path fill="none" stroke="black" d="M417.567,-71.6966C417.567,-63.9827 417.567,-54.7125 417.567,-46.1124"/>
<polygon fill="black" stroke="black" points="421.067,-46.1043 417.567,-36.1043 414.067,-46.1044 421.067,-46.1043"/>
</g>
<!-- Consistency -->
<g id="node14" class="node"><title>Consistency</title>
<ellipse fill="none" stroke="black" cx="820.567" cy="-90" rx="53.1797" ry="18"/>
<text text-anchor="middle" x="820.567" y="-85.8" font-family="Times,serif" font-size="14.00">Consistency</text>
</g>
<!-- Dependability&#45;&gt;Consistency -->
<g id="edge13" class="edge"><title>Dependability&#45;&gt;Consistency</title>
<path fill="none" stroke="black" d="M913.452,-145.638C896.283,-135.539 873.632,-122.215 854.996,-111.253"/>
<polygon fill="black" stroke="black" points="856.606,-108.139 846.212,-106.085 853.056,-114.172 856.606,-108.139"/>
</g>
<!-- Reliability -->
<g id="node15" class="node"><title>Reliability</title>
<ellipse fill="none" stroke="black" cx="939.567" cy="-90" rx="47.3823" ry="18"/>
<text text-anchor="middle" x="939.567" y="-85.8" font-family="Times,serif" font-size="14.00">Reliability</text>
</g>
<!-- Dependability&#45;&gt;Reliability -->
<g id="edge14" class="edge"><title>Dependability&#45;&gt;Reliability</title>
<path fill="none" stroke="black" d="M939.567,-143.697C939.567,-135.983 939.567,-126.712 939.567,-118.112"/>
<polygon fill="black" stroke="black" points="943.067,-118.104 939.567,-108.104 936.067,-118.104 943.067,-118.104"/>
</g>
<!-- Stability -->
<g id="node16" class="node"><title>Stability</title>
<ellipse fill="none" stroke="black" cx="1045.57" cy="-90" rx="40.1576" ry="18"/>
<text text-anchor="middle" x="1045.57" y="-85.8" font-family="Times,serif" font-size="14.00">Stability</text>
</g>
<!-- Dependability&#45;&gt;Stability -->
<g id="edge15" class="edge"><title>Dependability&#45;&gt;Stability</title>
<path fill="none" stroke="black" d="M963.355,-145.291C978.703,-135.155 998.803,-121.882 1015.29,-110.996"/>
<polygon fill="black" stroke="black" points="1017.6,-113.661 1024.02,-105.229 1013.75,-107.819 1017.6,-113.661"/>
</g>
<!-- Availability -->
<g id="node17" class="node"><title>Availability</title>
<ellipse fill="none" stroke="black" cx="1155.57" cy="-90" rx="51.8983" ry="18"/>
<text text-anchor="middle" x="1155.57" y="-85.8" font-family="Times,serif" font-size="14.00">Availability</text>
</g>
<!-- Dependability&#45;&gt;Availability -->
<g id="edge16" class="edge"><title>Dependability&#45;&gt;Availability</title>
<path fill="none" stroke="black" d="M979.184,-148.161C1015.86,-136.277 1070.39,-118.602 1109.1,-106.057"/>
<polygon fill="black" stroke="black" points="1110.64,-109.238 1119.08,-102.825 1108.49,-102.578 1110.64,-109.238"/>
</g>
</g>
</svg>
